refinementinfo

progressstart 0
progressstop 100
progresstext "Adapting mesh"

reftype bisection

markedelementsfile keep

refine elements
9101
9115
9143
9467
9470
9539
9558
9609
9674
9801
9808
9895
9928
9950
9957
10120
10172
10272
10291
10471
10534
10761
11001
11006
11259
11274
11292
11302
11351
11362
11367
11439
11440
11450
11490
11503
11522
11583
11634
11689
11720
11771
11895
12315
12430
12457
12512
12532
12539
12548
12617
12743
12801
12856
12869
12985
13015
13050
13068
13140
13186
13276
13383
13430
13485
13488
13511
13538
13539
13687
13714
13723
13730
13740
13816
13831
13835
13842
13846
13875
13912
13926
13941
13952
13970
13978
13988
14000
14030
14041
14049
14111
14142
14157
14248
14263
14269
14277
14291
14293
14315
14327
14348
14394
14437
14456
14494
14545
14553
14564
14616
14642
14652
14672
14684
14703
14742
14788
14852
14878
14962
14976
15025
15092
15120
15194
15259
15261
15300
15308
15337
15437
15438
15495
15561
15648
15845
15859
15876
15937
15954
15960
16023
16029
16064
16089
16104
16111
16130
16162
16170
16172
16285
16309
16313
16321
16324
16332
16378
16463
16464
16516
16534
16605
16620
16643
16697
16699
16702
16729
16736
16777
16781
16797
16916
16930
16943
16952
16953
16958
16979
16991
17011
17038
17066
17133
17153
17170
17177
17188
17194
17265
17276
17401
17419
17467
17478
17483
17490
17493
17505
17508
17510
17545
17553
17554
17572
17604
17609
17610
17621
17635
17641
17642
17654
17658
17667
17669
17682
17697
17705
17715
17727
17750
17754
17809
17821
17835
17840
17842
17847
17854
17858
17871
17890
17895
17901
17999
18043
18068
18076
18078
18104
18109
18143
18154
18161
18182
18190
18256
18259
18290
18306
18315
18320
18326
18336
18340
18348
18357
18359
18370
18395
18410
18449
18483
18491
18503
18523
18529
18574
18597
18607
18621
18666
18668
18680
18683
18706
18709
18710
18742
18744
18792
18937
18938
19002
19012
19117
19148
19195
19275
19278
19289
19294
19334
19346
19535
19604
19643
19802
19850
19970
20055
20331
20573
20706
20781
20824
20867
20875
20901
20909
20916
20946
20974
21014
21017
21055
21058
21100
21166
21172
21230
21269
21408
21412
21952
22299
22364
22365
22382
22390
22413
22415
22576
22737
22893
23117
23452
23454
23579
23582
23646
23700
23879
24013
24437
24521
24699
24782
24964
24966
25019
25078
25079
25089
25118
25149
25351
25587
25932
25966
26124
26226
26328
26342
26395
26443
26500
26591
27059
27505
27528
27537
27576
27586
27649
27724
27732
27733
27970
28068
28105
28143
28226
28547
28549
28552
28673
28804
28884
28900
28948
28953
29103
29335
29575
29774
29913
29996
30044
30180
30254
30457
30470
30578
30590
30831
30842
30953
31452
31756
31806
31816
31856
31998
32167
32355
32716
32858
32898
32933
33177
33179
33197
33209
33785
33798
33899
33951
33982
34094
34107
34134
34189
34286
34293
34312
34388
34400
34666
34867
34935
34939
34943
34984
35014
35025
35157
35181
35224
35304
35311
35321
35334
35356
35408
35426
35678
35716
35720
35786
35949
35989
36051
36161
36166
36213
36289
36662
36940
37156
37973
40556
40571
40597
40623
40692
40908
40916
41244
41399
41833
42779
43955
44074
46396
49745
50801
51135
51418
55622
55886

