Number of suspicious elements
^^^^^^^^^^^^^^^^^^^^^^^^^^^^^
888

Element dimension
^^^^^^^^^^^^^^^^^
2

Quality measure output (0...no, 1...yes)
^^^^^^^^^^^^^^^^^^^^^^^^^^^^^^^^^^^^^^^^
0

Element ID, element quality (if used; 0: worst, 1: best)
^^^^^^^^^^^^^^^^^^^^^^^^^^^^^^^^^^^^^^^^^^^^^^^^^^^^^^^^
708
719
724
725
727
731
733
734
736
737
738
751
765
780
791
793
794
796
797
798
801
804
805
807
809
810
811
812
813
814
919
955
957
968
1013
1046
1064
1070
1094
1117
1139
1141
1142
1148
1149
1152
1156
1188
1201
1213
1217
1221
1223
1227
1228
1232
1235
1239
1240
1241
1242
1243
1248
1249
1253
1255
1260
1261
1270
1271
1280
1281
1282
1283
1284
1286
1293
1295
1300
1311
1313
1319
1321
1326
1329
1341
1350
1351
1360
1361
1363
1365
1381
1382
1383
1385
1386
1399
1402
1405
1408
1411
1453
1456
1466
1467
1477
1481
1483
1484
1485
1487
1493
1497
1498
1501
1502
1508
1509
1512
1522
1523
1526
1534
1535
1538
1540
1541
1542
1543
1544
1545
1546
1547
1553
1556
1558
1559
1560
1561
1562
1564
1566
1568
1571
1572
1574
1575
1583
1584
1587
1589
1590
1591
1595
1597
1598
1599
1602
1605
1618
1619
1620
1622
1627
1633
1636
1637
1639
1647
1650
1651
1652
1659
1661
1663
1664
1665
1666
1669
1671
1679
1680
1684
1696
1698
1699
1700
1702
1703
1705
1708
1710
1711
1714
1721
1723
1730
1737
1740
1741
1745
1746
1748
1750
1753
1754
1755
1756
1758
1759
1760
1762
1763
1764
1776
1778
1780
1781
1784
1796
1799
1800
1803
1805
1808
1810
1812
1816
1818
1823
1825
1832
1834
1836
1842
1845
1847
1848
1850
1851
1854
1855
1856
1860
1861
1863
1865
1874
1877
1879
1882
1885
1887
1889
1891
1897
1899
1901
1904
1906
1910
1911
1912
1913
1914
1915
1916
1919
1920
1922
1923
1928
1929
1930
1931
1936
1937
1938
1943
1944
1949
1950
1951
1955
1959
1961
1962
1966
1967
1969
1974
1976
1978
1979
1981
1982
1983
1992
1993
1995
2000
2005
2010
2011
2012
2014
2024
2025
2027
2028
2029
2030
2031
2033
2034
2036
2037
2038
2039
2040
2054
2058
2059
2062
2075
2079
2080
2082
2085
2086
2087
2090
2091
2093
2094
2097
2099
2101
2107
2108
2113
2116
2117
2119
2121
2122
2123
2124
2125
2128
2132
2134
2135
2136
2139
2140
2141
2142
2144
2150
2152
2153
2154
2155
2156
2157
2158
2161
2163
2168
2174
2175
2176
2177
2181
2185
2189
2190
2191
2193
2196
2197
2200
2203
2204
2206
2207
2209
2217
2219
2220
2221
2222
2223
2225
2236
2239
2242
2244
2248
2255
2263
2268
2271
2273
2275
2281
2292
2301
2303
2309
2311
2312
2314
2316
2317
2323
2325
2326
2329
2331
2333
2335
2336
2339
2340
2342
2344
2345
2346
2383
2411
2413
2417
2419
2421
2422
2423
2424
2433
2436
2437
2446
2447
2448
2449
2451
2453
2470
2472
2473
2478
2480
2481
2482
2506
2508
2513
2518
2520
2521
2528
2531
2532
2543
2549
2554
2577
2580
2581
2600
2601
2602
2603
2621
2623
2626
2627
2630
2631
2632
2633
2634
2635
2636
2637
2638
2717
2777
2925
2927
2979
2980
3031
3036
3037
3039
3040
3044
3049
3050
3051
3090
3106
3115
3117
3118
3119
3120
3121
3124
3126
3128
3132
3254
3263
3268
3309
3315
3418
3468
3470
3479
3486
3493
3494
3503
3505
3508
3509
3510
3512
3514
3515
3524
3533
3536
3555
3568
3607
3616
3620
3657
3669
3676
3678
3700
3730
3753
3755
3756
3764
3765
3766
3770
3771
3775
3780
3787
3795
3801
3808
3809
3811
3817
3818
3819
3823
3826
3829
3833
3864
3879
3882
3904
3907
3913
3929
3932
3936
3937
3939
3941
3964
3965
3970
3974
3978
3989
3991
3993
3997
4004
4009
4020
4030
4033
4039
4041
4043
4044
4049
4064
4067
4080
4085
4088
4091
4096
4098
4099
4100
4113
4115
4117
4119
4121
4133
4134
4138
4139
4140
4145
4148
4149
4150
4155
4169
4170
4171
4173
4190
4196
4198
4199
4200
4219
4222
4223
4228
4229
4230
4233
4236
4240
4242
4245
4247
4249
4257
4259
4260
4262
4266
4270
4275
4277
4282
4283
4285
4286
4287
4292
4293
4295
4297
4299
4300
4315
4317
4320
4323
4326
4329
4330
4331
4333
4348
4350
4354
4357
4360
4362
4364
4372
4374
4383
4384
4385
4386
4388
4389
4390
4391
4396
4399
4405
4415
4416
4417
4418
4419
4420
4424
4427
4433
4434
4437
4440
4443
4446
4448
4453
4455
4457
4458
4459
4471
4473
4475
4477
4478
4479
4480
4482
4483
4486
4500
4501
4504
4507
4509
4512
4517
4518
4522
4525
4531
4533
4542
4547
4555
4556
4557
4559
4560
4565
4573
4574
4580
4583
4584
4591
4593
4594
4597
4599
4601
4602
4605
4606
4607
4614
4617
4624
4626
4627
4628
4629
4631
4632
4643
4644
4650
4652
4653
4656
4657
4658
4659
4662
4663
4666
4675
4677
4678
4681
4683
4684
4685
4690
4697
4699
4702
4705
4707
4709
4710
4711
4712
4714
4718
4719
4721
4729
4731
4733
4734
4736
4740
4744
4746
4749
4750
4752
4757
4758
4767
4773
4785
4789
4792
4793
4796
4798
4809
4810
4813
4815
4817
4819
4820
4822
4823
4824
4829
4833
4841
4843
4844
4848
4849
4857
4859
4861
4862
4864
4865
4866
4867
4873
4874
4876
4885
4886
4889
4891
4895
4897
4904
4906
4916
4917
4920
4921
4922
4924
4931
4940
4954
4955
4957
4958
4959
4960
4964
4971
4972
4973
4974
4975
4976
4977
4978
4979
4980
4982
