[23:46:18] -------- TetMesher Log --------
[23:46:18] Build Number: 20230901; ID: 2024.0 Release from 2023-09-01 (change 1164796); Date: 2023-09-01; ACIS version: 33.0.1, SPAresabs & SPAresnor: 1e-06, 1e-10; Problem class: Low Frequency
[23:46:18] Adaptive mesh refinement (pos.snap.)
[23:46:18] - Refining mesh
[23:46:18]  Mesh bisection

[23:46:18]  bad element 3688


[23:46:18]  repairing

[23:46:18]  3 trials

[23:46:21]  Time for Repair: 2.854
bad elements after repair: 


[23:46:21]  Bisection done

[23:46:22] 
#### Feedback Report Begins ####
#### Feedback Report Ends ####

[23:46:22] Done
