refinementinfo

progressstart 0
progressstop 100
progresstext "Adapting mesh"

reftype bisection

markedelementsfile keep

refine elements
986
9275
9603
9913
9947
9949
9978
9982
9995
10044
10075
10108
10132
10144
10158
10159
10189
10192
10211
10215
10216
10232
10254
10277
10282
10292
10308
10315
10321
10367
10383
10499
10501
10537
10551
10562
10564
10589
10591
10607
10684
10729
10751
10797
10826
10830
10838
10965
10973
10978
10989
11009
11046
11061
11109
11143
11144
11188
11211
11224
11275
11330
11341
11345
11378
11388
11393
11397
11405
11422
11442
11471
11481
11488
11503
11504
11508
11529
11536
11537
11554
11579
11580
11581
11610
11626
11649
11660
11673
11674
11680
11710
11712
11722
11742
11744
11763
11783
11794
11824
11880
11952
11963
12049
12054
12122
12145
12157
12191
12275
12278
12407
12428
12444
12477
12548
12559
12587
12647
12721
12817
12908
12915
12943
13007
13015
13044
13061
13069
13077
13170
13179
13186
13209
13211
13275
13290
13322
13329
13387
13464
13507
13530
13550
13552
13574
13608
13638
13646
13696
13697
13754
13778
13787
13822
13897
13955
13963
13981
13984
13990
14023
14058
14083
14089
14162
14177
14230
14233
14299
14300
14347
14352
14358
14443
14456
14474
14505
14525
14526
14527
14569
14570
14597
14602
14619
14638
14644
14669
14712
14724
14810
14814
14822
14828
14839
14843
14858
14869
14876
14934
15001
15024
15031
15047
15124
15129
15139
15154
15180
15196
15201
15227
15258
15271
15351
15366
15396
15407
15426
15442
15466
15504
15538
15566
15652
15675
15678
15684
15687
15720
15774
15794
15795
15798
15844
15914
15940
16005
16046
16154
16170
16172
16187
16198
16200
16226
16246
16329
16332
16337
16342
16357
16397
16403
16426
16432
16443
16454
16462
16506
16507
16516
16529
16530
16535
16540
16542
16551
16553
16563
16564
16569
16642
16696
16787
16795
16805
16857
16865
16890
16894
16899
16928
16949
16964
16977
17012
17039
17078
17081
17102
17191
17194
17228
17237
17247
17256
17261
17283
17322
17358
17361
17383
17426
17447
17457
17476
17489
17492
17563
17565
17635
17674
17688
17710
17722
17737
17775
17807
17827
17856
17874
17888
17892
17894
17914
17945
17983
17998
18024
18043
18047
18062
18089
18092
18133
18149
18161
18173
18175
18210
18242
18251
18252
18293
18359
18419
18422
18473
18479
18484
18518
18532
18535
18574
18611
18629
18659
18684
18685
18696
18710
18751
18754
18781
18828
18834
18857
18912
18948
18972
18991
19027
19054
19100
19106
19181
19222
19248
19269
19344
19364
19375
19410
19439
19450
19457
19459
19491
19496
19516
19578
19635
19636
19648
19656
19664
19699
19740
19745
19816
19818
19863
19916
19932
19938
20007
20026
20036
20037
20044
20050
20073
20079
20080
20108
20139
20163
20164
20174
20200
20270
20298
20300
20301
20395
20398
20418
20433
20464
20475
20493
20500
20509
20510
20528
20545
20548
20559
20570
20676
20805
20856
20959
20963
20993
21027
21042
21114
21130
21132
21143
21208
21251
21257
21286
21303
21335
21336
21422
21423
21453
21483
21486
21516
21567
21580
21584
21626
21645
21671
21674
21697
21743
21773
21832
21834
22270
22435
22687
22689
22876
22891
23050
23080
23165
23273
23357
23413
23463
23773
24028
24086
24321
24326
24836
24939
24941
25043
25168
25204
25468
25509
25512
25951
26104
26353
26374
26416
26432
26433
26556
26670
26911
27018
27272
27686
27722
27887
27911
28055
28118
28131
28165
28199
28205
28239
28583
28746
29119
29410
29423
29985
30342
30596
30800
31723
31798
31950
31951
32000
32106
32183
32302
32880
33347
33679
33683
33687
33975
34333
34349
34468
34618
34636
34641
34673
34678
34746
34813
34851
34896
34992
35041
35044
35117
35137
35211
35288
35407
35414
35425
35450
35457
35484
35497
35574
35618
35650
35682
35685
35741
35768
35801
35827
35902
35981
36011
36071
36175
36216
36233
36260
36376
36439
36451
36494
36927
36936
37019
37021
37058
37308
37373
37538
37773
38633
38802
39336
39367
40313
40696
40717
40996
41011
41033
41035
41119
41140
41203
41313
41358
41399
41470
41498
41568
41670
41705
41711
42120
42406
42787
42840
42871
43243
43434
43878
44801
45695
45785
45927
49258
52107
52192
52204
52459
53414
53475
54605
57942
57960
57964
58011
58045
58048
58055
58079
58082
58109
58114
58132
58138
58153
58159
58174
58182
58189
58195
58222
58228
58233
58308
58360
58366
58413
58466
58606
58734
58746
59148
59149
59509
59853
59866
59909
59964
60235
60481
61604
61643
62173
62296
62411
62475
62891
63078
64035
68186
68237
69202
70795
71994
73804
73808
73813
73814
73815
73826
73831
73833
73836
73838
73840
73848
73850
73857
73859
73868
73871
73872
73879
73880
73881
73882
73891
73905
73909
73910
73913
73923
73929
73937
73961
73982
73989
73990
73991
73993
74020
74022
74048
74058
74071
74080
74089
74093
74096
74097
74105
74118
74123
74130
74140
74141
74145
74167
74170
74180
74185
74199
74210
74211
74213
74248
74255
74256
74280
74288
74300
74325
74329
74335
74355
74376
74378
74385
74395
74415
74449
74459
74535
74578
74580
74603
74671
74700
74706
74721
74860
74873
75068
75103
75625
75643
75680
75885
75942
75946
76005
76104
76345
76370
76582
76592
77070
77764
77906
78577
80342
80717
81155
83432
83512
84504
87307
87315
87398
87662

