Number of suspicious elements
^^^^^^^^^^^^^^^^^^^^^^^^^^^^^
330

Element dimension
^^^^^^^^^^^^^^^^^
2

Quality measure output (0...no, 1...yes)
^^^^^^^^^^^^^^^^^^^^^^^^^^^^^^^^^^^^^^^^
0

Element ID, element quality (if used; 0: worst, 1: best)
^^^^^^^^^^^^^^^^^^^^^^^^^^^^^^^^^^^^^^^^^^^^^^^^^^^^^^^^
420
480
483
484
485
487
505
556
558
619
637
694
696
698
699
701
705
713
738
741
744
757
870
879
925
928
1006
1030
1040
1046
1048
1049
1051
1057
1058
1060
1062
1064
1066
1072
1094
1095
1127
1152
1155
1196
1198
1205
1266
1288
1294
1298
1299
1309
1312
1313
1333
1354
1360
1368
1369
1375
1382
1386
1388
1398
1401
1403
1413
1417
1421
1422
1424
1425
1426
1428
1429
1431
1448
1449
1561
1596
1598
1614
1616
1617
1619
1620
1623
1625
1627
1628
1631
1632
1635
1637
1646
1647
1650
1658
1660
1664
1665
1680
1682
1688
1691
1692
1694
1706
1711
1713
1715
1721
1725
1762
1786
1787
1789
1794
1797
1798
1804
1836
1840
1852
1857
1863
1869
1873
1879
1881
1883
1890
1895
1902
1903
1904
1910
1915
1918
1926
1927
1928
1930
1932
1934
1935
1936
1946
1952
1955
1959
1960
1962
1972
1974
1975
1976
1980
1996
1997
2054
2056
2064
2067
2068
2069
2070
2075
2076
2077
2082
2085
2091
2095
2096
2101
2102
2104
2108
2110
2112
2113
2120
2123
2127
2129
2132
2139
2142
2155
2159
2160
2172
2178
2213
2218
2225
2226
2227
2228
2229
2232
2234
2235
2238
2257
2259
2267
2269
2278
2280
2282
2287
2288
2290
2291
2293
2294
2297
2298
2301
2302
2303
2306
2307
2308
2317
2319
2322
2324
2328
2330
2344
2350
2351
2353
2360
2361
2362
2363
2364
2365
2367
2368
2370
2373
2384
2399
2407
2410
2412
2416
2419
2421
2422
2424
2425
2426
2428
2429
2430
2431
2433
2435
2436
2437
2439
2440
2446
2451
2454
2455
2456
2466
2467
2477
2490
2491
2492
2493
2494
2496
2504
2505
2506
2508
2512
2515
2516
2517
2521
2530
2531
2532
2537
2539
2562
2563
2564
2565
2566
2572
2591
2592
2593
2594
2598
2607
2609
2610
2613
2614
2616
2618
2619
2621
2622
2623
2624
2629
2630
2632
2636
2638
2640
2641
2658
2660
