refinementinfo

progressstart 0
progressstop 100
progresstext "Adapting mesh"

reftype bisection

markedelementsfile keep

refine elements
4235
4594
4609
4887
5151
5241
5264
5686
5688
5696
6316
6341
6556
6562
7040
7111
7117
7119
7122
7189
7209
7308
7327
7389
7426
7473
7480
7861
7891
7914
7938
7951
8063
8074
8079
8227
8279
8286
8454
8776
8815
8836
8880
9131
9309
9486
10097
12089
12111
12195
12364
12480
12490
12662
12707
12742
12810
12812
12999
13180
13260
13262
13294
13302
13391
13468
13521
13586
13714
13762
13777
13784
13798
13848
13901
13914
13941
14012
14022
14135
14156
14239
14270
14299
14394
14443
14468
14627
14682
14764
14765
14807
14808
14853
14860
14863
14912
14974
14979
15098
15102
15152
15163
15167
15189
15231
15232
15403
15428
15449
15482
15493
15538
15550
15583
15586
15593
15601
15605
15620
15647
15686
15746
15774
15788
15827
15853
15870
15907
15943
15947
15982
16047
16239
16254
16293
16294
16298
16363
16378
16379
16391
16406
16530
16632
16639
16645
16646
16655
16718
16721
16754
16756
16780
16810
16902
16983
16991
17010
17090
17138
17310
17342
17398
17411
17413
17464
17556
17578
17776
17782
17799
17816
17854
17857
17860
17866
17897
17899
17902
17907
17914
17917
17921
18009
18071
18109
18131
18134
18173
18181
18187
18208
18210
18305
18535
18945
19020
19187
19613

